<svg xmlns="http://www.w3.org/2000/svg" xmlns:xlink="http://www.w3.org/1999/xlink" width="433.237" height="306.672" viewBox="0 0 433.237 306.672">
  <defs>
    <linearGradient id="linear-gradient" x1="0.5" y1="1" x2="0.5" gradientUnits="objectBoundingBox">
      <stop offset="0" stop-color="gray" stop-opacity="0.251"/>
      <stop offset="0.54" stop-color="gray" stop-opacity="0.122"/>
      <stop offset="1" stop-color="gray" stop-opacity="0.102"/>
    </linearGradient>
    <linearGradient id="linear-gradient-2" x1="0.5" y1="1" x2="0.5" y2="0" xlink:href="#linear-gradient"/>
  </defs>
  <g id="Group_314" data-name="Group 314" transform="translate(0.005 0.006)">
    <ellipse id="Ellipse_4" data-name="Ellipse 4" cx="38.176" cy="6.132" rx="38.176" ry="6.132" transform="translate(106.052 294.23)" fill="#00b3ad" opacity="0.1"/>
    <ellipse id="Ellipse_5" data-name="Ellipse 5" cx="47.638" cy="6.132" rx="47.638" ry="6.132" transform="translate(304.109 294.403)" fill="#00b3ad" opacity="0.1"/>
    <path id="Path_201" data-name="Path 201" d="M59.815,396.83H99.578v54.2H62.726c-.1.556-.192,1.117-.294,1.677H99.578v43.708c-.067-.02-.125-.043-.188-.067-1.05-.415-2.092-.854-3.134-1.324l-.666-.3q-1.567-.74-3.134-1.567c-.364-.192-.729-.392-1.089-.6a65.2,65.2,0,0,1-15.625-12.208c-.133-.129-.259-.266-.392-.392-.635-.69-1.258-1.387-1.861-2.1l-.666-.784c-.713-.874-1.4-1.771-2.073-2.68-.1-.133-.192-.266-.294-.392a58.33,58.33,0,0,1-6.739-12.185c-.055-.129-.1-.27-.153-.392q-.807-2.076-1.43-4.192c-.18-.592-.353-1.175-.5-1.79-.055-.18-.1-.357-.145-.533C59.262,446.223,59,437.2,59,428.24v-3.134c0-3.624.043-7.272.106-10.915,0-.944.039-1.884.059-2.833q.082-3.608.235-7.217c.024-.67.055-1.336.09-2a11.338,11.338,0,0,1,.059-1.152C59.643,399.592,59.721,398.209,59.815,396.83Z" transform="translate(-54.101 -264.331)" fill="#00b3ad" opacity="0.1"/>
    <path id="Path_202" data-name="Path 202" d="M128.711,200.016H106.9a165.34,165.34,0,0,1,11.6-15.969c3.24-3.981,6.66-7.859,10.21-11.6Z" transform="translate(-83.234 -127.86)" fill="#00b3ad" opacity="0.1"/>
    <path id="Path_203" data-name="Path 203" d="M101.037,247.09v56.99H61.4c0-.165.027-.333.039-.5.035-.451.071-.9.11-1.348.043-.525.09-1.054.141-1.567s.106-1.14.165-1.708.114-1.144.18-1.712.125-1.136.2-1.7.133-1.136.208-1.7c.059-.47.121-.936.184-1.407.09-.662.184-1.328.286-1.986a1.831,1.831,0,0,1,.043-.294,135.517,135.517,0,0,1,2.919-14.308,105.816,105.816,0,0,1,4.917-14.5,108.824,108.824,0,0,1,7.4-14.245Z" transform="translate(-55.56 -173.257)" fill="#00b3ad" opacity="0.1"/>
    <path id="Path_204" data-name="Path 204" d="M186.8,191.126v54.2h84.928v-54.2Zm0,55.873v46.545c.486.1.968.2,1.446.282.65.125,1.3.239,1.959.337.125.02.255.039.392.051.259.043.525.078.784.114.654.09,1.3.165,1.959.223.31.031.623.059.936.082l.756.059h0c.411.031.819.055,1.222.067.251,0,.5.023.76.031h2.793c.337,0,.674,0,1.007-.031h.023a5.282,5.282,0,0,0,.7-.031,1.639,1.639,0,0,0,.2,0,4.054,4.054,0,0,0,.58-.027h.137l1.312-.1c.431-.039.866-.09,1.3-.137l.893-.106a78.145,78.145,0,0,0,10.755-2.288c7.922-2.21,15.672-5.3,23.59-7.565,10.237-2.919,21.548-4.353,31.441-.784V247Zm84.928-116.213V58.63a109.18,109.18,0,0,0-27.594,3.236c-21.505,5.4-40.8,17.121-57.335,32.088v36.828h4.263v1.673H186.8v57h84.928V132.459H208.564v-1.673Zm109.086-24.373a35.178,35.178,0,0,1-15.393-4.474C356.273,96.963,348.966,89.28,340.8,82.8A113.038,113.038,0,0,0,281.214,59.12v71.666H402.453l.3-.317Zm11.045-1.959L403.57,117.3v-16.22a46.463,46.463,0,0,0-11.695,3.354ZM403.57,305.1V247H378.616c-.067-.247-.133-.5-.212-.748.074.251.137.5.208.748H281.229v42.02c.925.686,1.837,1.407,2.743,2.139h0c.976.784,1.939,1.61,2.907,2.421l.976.807c.466.392.936.784,1.41,1.152q1.41,1.144,2.848,2.257c.474.392.96.744,1.442,1.113A196.376,196.376,0,0,0,317.7,314.7q2.833,1.567,5.716,3.06c1.281.654,2.57,1.3,3.863,1.935q2.915,1.422,5.877,2.743h0a215.813,215.813,0,0,0,57.2,16.663q6.578.972,13.207,1.528V305.1h.392ZM281.229,132.459v56.994H403.585V132.459Zm0,58.667v54.2H403.585v-54.2Zm131.853-90.112v18.093l14.947-16.4q-7.428-1.2-14.947-1.712Zm0,90.131v54.181H532.088v-54.2ZM531.654,309.4l.419-62.4H413.082v94.253a213.411,213.411,0,0,0,23-.274h.133q5.485-.345,10.919-1h.082a201.084,201.084,0,0,0,56.1-14.97m51.716-124.954c-.447-1.054-.913-2.1-1.387-3.134-.885-1.959-1.822-3.863-2.786-5.767h-9.285v54.177h23.476c-.012-15.342-3.894-31.014-10.006-45.295Zm-13.458,46.968v53.675A76.891,76.891,0,0,0,557.8,278.812a75.222,75.222,0,0,0,7.232-31.8Zm0-71.666v14.1h8.416a152.813,152.813,0,0,0-8.4-14.124Zm-80.709-63.705c-.619-.235-1.238-.474-1.861-.705a169.887,169.887,0,0,0-20.1-6.041L416.032,130h0l-.439.466.294.321h81.406a174.114,174.114,0,0,0-36.413-19.162Zm38.811,20.831H414.751l-1.669,1.528v55.446H532.1V162.6a169.567,169.567,0,0,0-32.413-30.136Z" transform="translate(-131.83 -58.63)" fill="#00b3ad" opacity="0.1"/>
    <path id="Path_205" data-name="Path 205" d="M101.037,320.46V348.7H61.4c0-.165.027-.333.039-.5.035-.451.071-.9.11-1.348.043-.525.09-1.054.141-1.567s.106-1.14.165-1.708.114-1.144.18-1.712.125-1.136.2-1.7.133-1.136.208-1.7c.059-.47.121-.936.184-1.407.09-.662.184-1.328.286-1.986a1.833,1.833,0,0,1,.043-.294,135.517,135.517,0,0,1,2.919-14.308Z" transform="translate(-55.56 -217.881)" fill="#00b3ad" opacity="0.1"/>
    <path id="Path_206" data-name="Path 206" d="M59.815,396.83H99.578v54.2H62.726c-.1.556-.192,1.117-.294,1.677H99.578v43.708c-.067-.02-.125-.043-.188-.067-1.05-.415-2.092-.854-3.134-1.324l-.666-.3q-1.567-.74-3.134-1.567c-.364-.192-.729-.392-1.089-.6a65.2,65.2,0,0,1-15.625-12.208c-.133-.129-.259-.266-.392-.392-.635-.69-1.258-1.387-1.861-2.1l-.666-.784c-.713-.874-1.4-1.771-2.073-2.68-.1-.133-.192-.266-.294-.392a58.33,58.33,0,0,1-6.739-12.185c-.055-.129-.1-.27-.153-.392q-.807-2.076-1.43-4.192c-.18-.592-.353-1.175-.5-1.79-.055-.18-.1-.357-.145-.533C59.262,446.223,59,437.2,59,428.24v-3.134c0-3.624.043-7.272.106-10.915,0-.944.039-1.884.059-2.833q.082-3.608.235-7.217c.024-.67.055-1.336.09-2a11.338,11.338,0,0,1,.059-1.152C59.643,399.592,59.721,398.209,59.815,396.83Z" transform="translate(-54.101 -264.331)" fill="#00b3ad" opacity="0.1"/>
    <path id="Path_207" data-name="Path 207" d="M169.458,183.614v48.833h-29.9V183.614h4.263V167.08h17.5v16.534Z" transform="translate(-84.59 -101.624)" fill="#00b3ad" opacity="0.1"/>
    <rect id="Rectangle_61" data-name="Rectangle 61" width="29.894" height="54.196" transform="translate(54.974 132.496)" fill="#00b3ad" opacity="0.1"/>
    <path id="Path_208" data-name="Path 208" d="M186.8,539.44h29.9V584.5a78.021,78.021,0,0,1-10.755,2.284l-.893.11c-.439.051-.874.094-1.3.137s-.878.074-1.312.1H202.3c-.188,0-.392.023-.576.027h-.2c-.235,0-.47.023-.705.031h0c-.333.02-.666.023-1.007.027h-2.774l-.756-.027c-.392,0-.815-.043-1.222-.07h0l-.752-.055-.936-.086c-.658-.059-1.312-.133-1.959-.223l-.784-.11-.392-.055c-.654-.1-1.3-.212-1.959-.337-.482-.082-.96-.184-1.446-.282Z" transform="translate(-131.83 -351.067)" fill="#00b3ad" opacity="0.1"/>
    <rect id="Rectangle_62" data-name="Rectangle 62" width="24.651" height="54.596" transform="translate(247.104 76.223)" fill="#00b3ad" opacity="0.1"/>
    <path id="Path_209" data-name="Path 209" d="M502.94,338.19v54.2H380.58V369.012h65.174V382.8h32.53V338.19Z" transform="translate(-231.181 -205.694)" fill="#00b3ad" opacity="0.1"/>
    <path id="Path_210" data-name="Path 210" d="M550.568,596.389h-.392v35.555q-6.621-.56-13.2-1.524a215.826,215.826,0,0,1-57.225-16.7q-7.887-3.55-15.452-7.75a197.16,197.16,0,0,1-24.15-15.793q-2.884-2.21-5.693-4.521c-1.3-1.07-2.586-2.167-3.89-3.232-.905-.733-1.818-1.454-2.743-2.143v-42H525.2c-.067-.251-.133-.5-.2-.748.074.247.145.5.212.748h24.969v58.087C550.309,596.369,550.439,596.381,550.568,596.389Z" transform="translate(-278.421 -349.906)" fill="#00b3ad" opacity="0.1"/>
    <path id="Path_211" data-name="Path 211" d="M879.283,211.98H863.22v-4.991h7.2V192.12q.936.341,1.865.7v14.167h7Z" transform="translate(-543.235 -139.824)" fill="#00b3ad" opacity="0.1"/>
    <path id="Path_212" data-name="Path 212" d="M857.857,304.08H779l.027.02-.035-.02H764.36v-54.6h4.145v40.354h18.943v-23.9H803.1V247.09H819.16v18.865h15.648v23.9h23.049Z" transform="translate(-483.108 -173.257)" fill="#00b3ad" opacity="0.1"/>
    <path id="Path_213" data-name="Path 213" d="M764.36,396.82v54.2h93.5v-54.2Zm118.877,118,.129-42.9H857.857v-19.2h-93.5v94.225a213.4,213.4,0,0,0,23-.274h.133q5.485-.345,10.919-1h.082a201.084,201.084,0,0,0,56.1-14.97" transform="translate(-483.108 -264.324)" fill="#00b3ad" opacity="0.1"/>
    <path id="Path_214" data-name="Path 214" d="M1094.016,539.44h21.811a75.455,75.455,0,0,1-7.236,31.8,76.913,76.913,0,0,1-16.22,21.881V558.642h1.646Z" transform="translate(-682.607 -351.067)" fill="#00b3ad" opacity="0.1"/>
    <path id="Path_215" data-name="Path 215" d="M1118.393,464.845H1096.57V419.55h11.809C1114.491,433.831,1118.373,449.5,1118.393,464.845Z" transform="translate(-685.161 -278.149)" fill="#00b3ad" opacity="0.1"/>
    <rect id="Rectangle_63" data-name="Rectangle 63" width="13.207" height="17.117" transform="translate(258.552 91.401)" fill="#00b3ad" opacity="0.1"/>
    <rect id="Rectangle_64" data-name="Rectangle 64" width="13.207" height="3.941" transform="translate(258.552 126.881)" fill="#00b3ad" opacity="0.1"/>
    <rect id="Rectangle_65" data-name="Rectangle 65" width="13.207" height="11.499" transform="translate(258.552 132.496)" fill="#00b3ad" opacity="0.1"/>
    <rect id="Rectangle_66" data-name="Rectangle 66" width="13.207" height="17.117" transform="translate(258.552 162.362)" fill="#00b3ad" opacity="0.1"/>
    <rect id="Rectangle_67" data-name="Rectangle 67" width="13.207" height="17.117" transform="translate(258.552 197.842)" fill="#00b3ad" opacity="0.1"/>
    <path id="Path_216" data-name="Path 216" d="M719.623,667.307a2.172,2.172,0,0,1,.392.023h-.392v3.977h-13.2V654.17h13.2Z" transform="translate(-447.868 -420.847)" fill="#00b3ad" opacity="0.1"/>
    <path id="Path_217" data-name="Path 217" d="M719.623,744.71v13.223q-6.621-.56-13.2-1.524v-11.7Z" transform="translate(-447.868 -475.915)" fill="#00b3ad" opacity="0.1"/>
    <rect id="Rectangle_68" data-name="Rectangle 68" width="56.602" height="1.258" transform="translate(149.399 185.438)" fill="#00b3ad" opacity="0.1"/>
    <rect id="Rectangle_69" data-name="Rectangle 69" width="56.602" height="4.819" transform="translate(149.399 188.369)" fill="#00b3ad" opacity="0.1"/>
    <rect id="Rectangle_70" data-name="Rectangle 70" width="56.602" height="7.75" transform="translate(149.399 208.985)" fill="#00b3ad" opacity="0.1"/>
    <path id="Path_218" data-name="Path 218" d="M488.669,652.15v7.75H444.4q-2.883-2.2-5.7-4.521c-1.3-1.07-2.582-2.167-3.89-3.228Z" transform="translate(-282.672 -419.619)" fill="#00b3ad" opacity="0.1"/>
    <path id="Path_219" data-name="Path 219" d="M541.042,712.222v7.742h-4.674q-7.879-3.554-15.448-7.754Z" transform="translate(-335.045 -456.148)" fill="#00b3ad" opacity="0.1"/>
    <rect id="Rectangle_71" data-name="Rectangle 71" width="11.143" height="11.143" transform="translate(304.254 137.75)" fill="#00b3ad" opacity="0.1"/>
    <rect id="Rectangle_72" data-name="Rectangle 72" width="11.143" height="11.143" transform="translate(62.998 85.833)" fill="#00b3ad" opacity="0.1"/>
    <rect id="Rectangle_73" data-name="Rectangle 73" width="11.143" height="11.143" transform="translate(62.998 111.715)" fill="#00b3ad" opacity="0.1"/>
    <rect id="Rectangle_74" data-name="Rectangle 74" width="11.143" height="11.143" transform="translate(62.998 137.597)" fill="#00b3ad" opacity="0.1"/>
    <rect id="Rectangle_75" data-name="Rectangle 75" width="11.143" height="11.143" transform="translate(62.998 163.474)" fill="#00b3ad" opacity="0.1"/>
    <rect id="Rectangle_76" data-name="Rectangle 76" width="11.143" height="11.143" transform="translate(62.998 189.356)" fill="#00b3ad" opacity="0.1"/>
    <rect id="Rectangle_77" data-name="Rectangle 77" width="11.143" height="11.143" transform="translate(62.998 215.238)" fill="#00b3ad" opacity="0.1"/>
    <rect id="Rectangle_78" data-name="Rectangle 78" width="11.143" height="11.143" transform="translate(346.791 137.75)" fill="#00b3ad" opacity="0.1"/>
    <rect id="Rectangle_79" data-name="Rectangle 79" width="11.143" height="11.143" transform="translate(304.254 165.234)" fill="#00b3ad" opacity="0.1"/>
    <rect id="Rectangle_80" data-name="Rectangle 80" width="11.143" height="11.143" transform="translate(346.791 165.234)" fill="#00b3ad" opacity="0.1"/>
    <rect id="Rectangle_81" data-name="Rectangle 81" width="11.143" height="11.143" transform="translate(304.254 192.714)" fill="#00b3ad" opacity="0.1"/>
    <rect id="Rectangle_82" data-name="Rectangle 82" width="11.143" height="11.143" transform="translate(346.791 192.714)" fill="#00b3ad" opacity="0.1"/>
    <rect id="Rectangle_83" data-name="Rectangle 83" width="11.143" height="11.143" transform="translate(304.254 220.198)" fill="#00b3ad" opacity="0.1"/>
    <rect id="Rectangle_84" data-name="Rectangle 84" width="11.143" height="11.143" transform="translate(346.791 220.198)" fill="#00b3ad" opacity="0.1"/>
    <rect id="Rectangle_85" data-name="Rectangle 85" width="11.143" height="11.143" transform="translate(304.254 247.682)" fill="#00b3ad" opacity="0.1"/>
    <rect id="Rectangle_86" data-name="Rectangle 86" width="11.143" height="11.143" transform="translate(346.791 247.682)" fill="#00b3ad" opacity="0.1"/>
    <path id="Path_220" data-name="Path 220" d="M775.83,709.515V702.33h11.139v6.163Z" transform="translate(-471.576 -427.168)" fill="#00b3ad" opacity="0.1"/>
    <path id="Path_221" data-name="Path 221" d="M65.24,357v6.374h38.133V357Zm3.8,5.975H65.93v-5.583h3.134Zm3.8,0H69.7v-5.583h3.134Zm3.789,0H73.491v-5.583h3.134Zm3.8,0h-3.13v-5.583h3.134Zm3.793,0H81.08v-5.583h3.134Zm3.8,0H84.877v-5.583h3.134Zm3.8,0H88.673v-5.583h3.134Zm3.793,0H92.465v-5.583H95.6Zm3.793,0H96.258v-5.583h3.134Zm3.793,0h-3.134v-5.583h3.134Z" transform="translate(-57.896 -240.105)" fill="#00b3ad" opacity="0.1"/>
    <path id="Path_222" data-name="Path 222" d="M65.24,404.34v6.374h38.133V404.34Zm3.8,5.971H65.93v-5.567h3.134Zm3.8,0H69.7v-5.567h3.134Zm3.789,0H73.491v-5.567h3.134Zm3.8,0h-3.13v-5.567h3.134Zm3.793,0H81.08v-5.567h3.134Zm3.8,0H84.877v-5.567h3.134Zm3.8,0H88.673v-5.567h3.134Zm3.793,0H92.465v-5.567H95.6Zm3.793,0H96.258v-5.567h3.134Zm3.793,0h-3.134v-5.567h3.134Z" transform="translate(-57.896 -268.898)" fill="#00b3ad" opacity="0.1"/>
    <path id="Path_223" data-name="Path 223" d="M65.24,451.7v6.386h38.133V451.7Zm3.8,5.971H65.93V452.1h3.134Zm3.8,0H69.7V452.1h3.134Zm3.789,0H73.491V452.1h3.134Zm3.8,0h-3.13V452.1h3.134Zm3.793,0H81.08V452.1h3.134Zm3.8,0H84.877V452.1h3.134Zm3.8,0H88.673V452.1h3.134Zm3.793,0H92.465V452.1H95.6Zm3.793,0H96.258V452.1h3.134Zm3.793,0h-3.134V452.1h3.134Z" transform="translate(-57.896 -297.703)" fill="#00b3ad" opacity="0.1"/>
    <path id="Path_224" data-name="Path 224" d="M65.24,499.06v6.367h38.133V499.06Zm3.8,5.971H65.93v-5.575h3.134Zm3.8,0H69.7v-5.575h3.134Zm3.789,0H73.491v-5.575h3.134Zm3.8,0h-3.13v-5.575h3.134Zm3.793,0H81.08v-5.575h3.134Zm3.8,0H84.877v-5.575h3.134Zm3.8,0H88.673v-5.575h3.134Zm3.793,0H92.465v-5.575H95.6Zm3.793,0H96.258v-5.575h3.134Zm3.793,0h-3.134v-5.575h3.134Z" transform="translate(-57.896 -326.508)" fill="#00b3ad" opacity="0.1"/>
    <path id="Path_225" data-name="Path 225" d="M65.66,546.41c.153.6.325,1.2.505,1.79V546.81H69.3v5.571H67.623c.051.129.1.27.153.392h35.853V546.41Zm7.444,5.971H69.97V546.81H73.1Zm3.789,0H73.758V546.81h3.134Zm3.8,0H77.547V546.81h3.134Zm3.793,0H81.347V546.81h3.134Zm3.8,0H85.144V546.81h3.134Zm3.8,0H88.94V546.81h3.134Zm3.793,0H92.733V546.81h3.134Zm3.793,0H96.525V546.81H99.66Zm3.793,0h-3.134V546.81h3.134Z" transform="translate(-58.151 -355.307)" fill="#00b3ad" opacity="0.1"/>
    <path id="Path_226" data-name="Path 226" d="M88.26,593.77c.1.125.192.266.294.392h2.073v2.676c.223.266.443.533.67.784v-3.475h3.134v5.591H93.161c.125.129.247.266.392.392h23.833V593.77Zm9.955,5.967H95.081V594.17h3.134Zm3.8,0H98.878V594.17h3.134Zm3.8,0h-3.134V594.17h3.134Zm3.793,0h-3.134V594.17H109.6Zm3.793,0h-3.134V594.17h3.134Zm3.793,0h-3.134V594.17h3.134Z" transform="translate(-71.897 -384.111)" fill="#00b3ad" opacity="0.1"/>
    <path id="Path_227" data-name="Path 227" d="M141.65,641.12c.357.2.721.392,1.089.6v-.2h3.134v1.763l.666.31V641.52h3.134v3.389a.984.984,0,0,0,.188.071V641.12Z" transform="translate(-104.369 -412.91)" fill="#00b3ad" opacity="0.1"/>
    <path id="Path_228" data-name="Path 228" d="M434.361,301.458ZM410.227,417.091Zm-25.18-58.835c.074.251.137.5.208.748h0C385.191,358.758,385.125,358.507,385.047,358.256Zm49.315-56.81ZM197.72,242.78v1.673h17.5V242.78ZM410.227,417.091Zm-25.18-58.835c.074.251.137.5.208.748h0C385.191,358.758,385.125,358.507,385.047,358.256Zm49.315-56.81ZM410.227,417.08Zm-25.18-58.823c.074.251.137.5.208.748h0C385.191,358.758,385.125,358.507,385.047,358.256Z" transform="translate(-138.471 -170.636)" fill="#00b3ad" opacity="0.1"/>
    <path id="Path_229" data-name="Path 229" d="M379.157,304.408s-1.544-.215-1.544-2.464a35.231,35.231,0,0,0-1.1-6.449h0c0-.02-.956-7.315-2.276-8.474s-3.017-7.969-3.017-7.969-.29-3.695-.882-4.49a38.146,38.146,0,0,1-2.57-5.52c-1.179-2.778-6.1-4.7-6.1-4.7s-8.89-5.156-11.409-6.837h0a3.865,3.865,0,0,1-.639-.482c-.439-.576-2.351-.588-2.351-.588a38.531,38.531,0,0,1-.454-4.024,3.059,3.059,0,0,0-.02-.423,13.556,13.556,0,0,0,5.959-7.374c.047-.149.086-.306.129-.454a1.273,1.273,0,0,0,.764-.69,14.372,14.372,0,0,1,.513-1.567,5.9,5.9,0,0,1,1.45-1.273,5.485,5.485,0,0,0,1.508-4.463c-.039-1.312-.251-2.637-.168-3.941l.024-.329c.023-.2.051-.392.086-.58.192-.972.611-1.888.846-2.852a3.669,3.669,0,0,0-.29-2.88c-.8-1.218-2.476-1.461-3.945-1.587-1.665-.141-3.154.043-4.22-1.34a15.043,15.043,0,0,0-1.677-2.026c-.219-.2-2.351-1.5-2.351-1.591a9.524,9.524,0,0,0-6.641-.509c-1.1.321-2.147.846-3.268,1.109-2.417.572-5.2-.047-7.252,1.336a8.524,8.524,0,0,0-2.472,3.244q-.784,1.5-1.591,3a19.416,19.416,0,0,0-2.112,5.129,8.139,8.139,0,0,0-.141,1.2h0v.639a2.108,2.108,0,0,0,.023.392c.023.121.02.161.031.243s.031.266.055.392.07.345.117.517c.02.074.047.145.071.215.039.133.086.262.137.392.027.067.055.137.086.2a3.676,3.676,0,0,0,.2.392c.031.055.055.106.086.157a5.2,5.2,0,0,0,.36.525c.838,1.046,2.073,1.712,2.985,2.692v.439a13.411,13.411,0,0,0,6.1,10.951c0,.149.02.3.027.451a22.413,22.413,0,0,1-.043,3.491,1.645,1.645,0,0,0-1.3-.58,1.875,1.875,0,0,0-.5.043l-.035-.027h0v.035c-.862.212-1.924,1.109-2.938,3.659,0,0-3.087,3.479-5.438,3.334s-8.3,3.62-8.3,3.62-5.806,3.769-7.052,7.609a53.613,53.613,0,0,1-2.5,6.378l-7.178,14.79h0L295.62,306.23a54.449,54.449,0,0,1,.588,6.014c-.145.8,3.013,7.969,3.013,7.969s10.433,18.332,14.7,19.272l.306-.215a2.5,2.5,0,0,0,.576.215l.878-.619a9.562,9.562,0,0,1-.067,2.069c-.588,1.81.219,13.623,1.246,15.938s.662,32.675.662,32.675l-.145,2.68a1.136,1.136,0,0,0,.035.235l-.035.635.106.055a7.546,7.546,0,0,1-.106,2.551,28.363,28.363,0,0,0-.517,4.5s-2.935,18.759-1.544,22.528,2.574,7.9,2.574,7.9,1.469,4.7.071,5.5-5.375,2.151-4.557,4.11c.744,1.81,3.569,6.66,3.988,7.37l-.035.372-.576,6.241a7.836,7.836,0,0,0,.662,2.382,4.1,4.1,0,0,0,4.188,2.617c.392-.027.846-.074,1.285-.133a55.532,55.532,0,0,0,9.52-2.476,3.881,3.881,0,0,1-.744-.615h0a2.151,2.151,0,0,1-.654-1.567c.063-1.136-2.065-6.551-2.594-7.883-.082-.192-.125-.3-.125-.3s4.85-5.07,4.043-9.564c0,0-5.368-3.134-3.6-4.854a54.732,54.732,0,0,0,4.925-6.66s.145-18.473,0-21.231a22.841,22.841,0,0,1,.27-5.732c.059-.286.129-.564.2-.838a51.148,51.148,0,0,0,7.381.56c.9,0,1.818,0,2.742-.055q0,.392.035.846c.2,4.576.584,12.6.893,15.581.439,4.274,2.864,15.793,2.864,15.793s-4.627,2.97.807,10.288c0,0,0,2.652-.36,3.036h0a33.209,33.209,0,0,0-.929,3.824,6.742,6.742,0,0,0,.047,3.5c.882,1.732,6.171,1.591,6.171,1.591h0l.129-.023a7.581,7.581,0,0,1,5.6,1.689c2.01,1.614,9.638.905,13.767.392,1.618-.2,2.7-.392,2.7-.392a1.568,1.568,0,0,0,.055-.564h0c-.043-1.015-.838-3.24-6.229-5.227,0,0-5.07-3.409-5-6.378h-.693a5.528,5.528,0,0,1,.7,0s-1.986-7.248-1.175-7.836-1.618-8.619-1.618-8.619-1.391-13.478-1.465-14.422a8.227,8.227,0,0,1,.364-2.39l-.364-7.389s-.07-2.456,0-3.256a16.266,16.266,0,0,0-.168-2.073c-.035-.274-.07-.56-.11-.842,1.9-.482,3.134-.929,3.134-.929l-.219-25.721c1.614-3.134,1.912-10.01,1.9-14.888,0-3.134-.141-5.454-.141-5.454l2.206-3.6s.509-4.31-.3-5.254a.9.9,0,0,1,.1-1.234,4.086,4.086,0,0,1,.482-.329s-.023-.035-.051-.086a3.9,3.9,0,0,1,.49-.349s-.784-1.215-.082-1.728c.658.447,1.246.784,1.693,1.058-.031.286-.063.451-.063.451l.188-.392.693.392s3.456-6.884,3.381-7.9,2.351-5.289,2.351-5.289a5.292,5.292,0,0,1,1.618-3.185c1.324-.94,1.026-7.754,1.026-7.754s.368-3.55,1.25-5S379.157,304.408,379.157,304.408Zm-66.118-3.021.067,1.642-.674-1.085Z" transform="translate(-198.015 -155.661)" fill="url(#linear-gradient)"/>
    <path id="Path_230" data-name="Path 230" d="M472.642,497.726l-.846,3.6s-6.778-3.46-8-7.855,2.045-6.065,2.045-6.065l6.316,2.676Z" transform="translate(-300.134 -319.422)" fill="#fff"/>
    <path id="Path_231" data-name="Path 231" d="M472.642,497.726l-.846,3.6s-6.778-3.46-8-7.855,2.045-6.065,2.045-6.065l6.316,2.676Z" transform="translate(-300.134 -319.422)" opacity="0.1"/>
    <path id="Path_232" data-name="Path 232" d="M365.9,804.693s-6.269,2.3-10.578,2.594a4.025,4.025,0,0,1-4.11-2.6,7.876,7.876,0,0,1-.646-2.37l.56-6.21.3-3.307,9.156-2.378,1.3,3.965.121.3c.521,1.324,2.609,6.711,2.547,7.836a2.139,2.139,0,0,0,.643,1.548A3.726,3.726,0,0,0,365.9,804.693Z" transform="translate(-231.436 -503.716)" fill="#fff"/>
    <path id="Path_233" data-name="Path 233" d="M455.315,800.9a1.566,1.566,0,0,1-.055.56s-13.407,2.237-16.15,0a7.264,7.264,0,0,0-5.642-1.653s-5.187.141-6.053-1.567a6.8,6.8,0,0,1-.043-3.479,33.146,33.146,0,0,1,.909-3.8l.208-.165,1.234-.991,14.449-.427h.11c-.071,2.954,4.905,6.343,4.905,6.343C454.473,797.672,455.253,799.886,455.315,800.9Z" transform="translate(-278.028 -503.077)" fill="#fff"/>
    <path id="Path_234" data-name="Path 234" d="M455.319,809.259a1.6,1.6,0,0,1-.059.56s-13.4,2.237-16.146,0a7.264,7.264,0,0,0-5.638-1.653s-5.191.141-6.053-1.567a6.8,6.8,0,0,1-.047-3.479c2,.2,5.152.7,6.39,1.885,1.873,1.806,5.046,3.608,6.993,3.749C442.284,808.852,451.4,809.142,455.319,809.259Z" transform="translate(-278.032 -511.44)" opacity="0.1"/>
    <path id="Path_235" data-name="Path 235" d="M366.914,825.913s-6.269,2.3-10.578,2.594a4.014,4.014,0,0,1-4.106-2.605c1.595.537,3.808,1.1,4.972.584,1.379-.611,6.269-1.007,9.011-1.175a3.861,3.861,0,0,0,.7.6Z" transform="translate(-232.446 -524.936)" opacity="0.1"/>
    <path id="Path_236" data-name="Path 236" d="M397.27,316.507c-5.172-2.01-11.824-8.651-10.163-11.754a6.943,6.943,0,0,0,.646-2.492,22.762,22.762,0,0,0,.047-3.526,48.292,48.292,0,0,0-.693-5.736s16.146.364,15.205,2.743a8.891,8.891,0,0,0-.243,3.264c.074,1.356.27,2.888.474,4.184.282,1.779.564,3.134.564,3.134s-.987,1.383-1.567,1.457S404.69,319.371,397.27,316.507Z" transform="translate(-253.501 -201.18)" fill="#cf6f80"/>
    <path id="Path_237" data-name="Path 237" d="M362.842,794.687l-.121.133c-4.827-5.838-10.665,1.438-10.665,1.438l-.086-.153.3-3.307,9.156-2.378,1.3,3.965Z" transform="translate(-232.288 -503.716)" opacity="0.1"/>
    <path id="Path_238" data-name="Path 238" d="M446.016,789.757s-3.526-.075-5.407,1.587-10.97.36-10.578,0a1.29,1.29,0,0,0,.2-.6l1.234-.991,14.449-.427C445.973,789.592,446.016,789.757,446.016,789.757Z" transform="translate(-279.758 -503.053)" opacity="0.1"/>
    <path id="Path_239" data-name="Path 239" d="M362.658,661.4a10.9,10.9,0,0,0-.6,2.01,23,23,0,0,0-.27,5.7c.145,2.743,0,21.121,0,21.121a56.228,56.228,0,0,1-4.827,6.629c-1.728,1.728,3.526,4.831,3.526,4.831.784,4.466-3.965,9.513-3.965,9.513-4.827-5.838-10.665,1.442-10.665,1.442s-3.173-5.485-3.965-7.444,3.1-3.315,4.466-4.11-.067-5.485-.067-5.485-1.156-4.11-2.527-7.859,1.512-22.414,1.512-22.414a28.918,28.918,0,0,1,.505-4.47,7.474,7.474,0,0,0,.106-2.539c-.023-.286-.051-.525-.07-.686s-.035-.235-.035-.235l.055-.094,1.959-3.651S363.6,659.1,362.658,661.4Z" transform="translate(-226.097 -420.537)" fill="#00b3ad"/>
    <path id="Path_240" data-name="Path 240" d="M439.442,712.759s-3.526-.075-5.407,1.567-10.97.36-10.578,0,.36-3.029.36-3.029c-5.332-7.279-.784-10.234-.784-10.234s-2.382-11.46-2.813-15.711c-.3-2.97-.674-10.951-.874-15.507-.086-1.959-.137-3.307-.137-3.307l4.357-.878.56-.113,10.508-2.108s.29,1.959.486,3.561a16.652,16.652,0,0,1,.165,2.065c-.07.784,0,3.236,0,3.236l.357,7.354a8.35,8.35,0,0,0-.357,2.378c.071.936,1.438,14.343,1.438,14.343s2.378,8,1.567,8.576S439.442,712.759,439.442,712.759Z" transform="translate(-273.184 -426.485)" fill="#00b3ad"/>
    <path id="Path_241" data-name="Path 241" d="M402.715,295.742a8.891,8.891,0,0,0-.243,3.264,13.419,13.419,0,0,1-14.269-.266,48.289,48.289,0,0,0-.694-5.74S403.656,293.357,402.715,295.742Z" transform="translate(-253.904 -201.18)" opacity="0.1"/>
    <path id="Path_242" data-name="Path 242" d="M400.636,257.087a13.27,13.27,0,0,1-.658,4.157,13.407,13.407,0,0,1-26.148-3.836v-.321a13.406,13.406,0,1,1,26.812,0Z" transform="translate(-245.583 -171.183)" fill="#cf6f80"/>
    <path id="Path_243" data-name="Path 243" d="M397.27,330.885c-5.172-2.01-11.824-8.651-10.163-11.754a6.943,6.943,0,0,0,.646-2.492l7.08,5.818,4.38,3.593,3.33-8.478c.282,1.779.564,3.134.564,3.134s-.987,1.383-1.567,1.457S404.69,333.75,397.27,330.885Z" transform="translate(-253.501 -215.558)" opacity="0.1"/>
    <path id="Path_244" data-name="Path 244" d="M360.8,297l-5.912,99.319-7.71.505L327.21,339.237l3.275-68.371.69-14.445,8.878,7.291,4.384,3.593,3.428-8.725,6.374,5.556Z" transform="translate(-198.72 -155.961)" fill="#00b3ad"/>
    <path id="Path_245" data-name="Path 245" d="M368.867,661.447a10.9,10.9,0,0,0-.6,2.01,56.811,56.811,0,0,1-16.165-5.05l-.106-.055.035-.631.02-.329,1.959-3.651S369.807,659.147,368.867,661.447Z" transform="translate(-232.306 -420.586)" opacity="0.1"/>
    <path id="Path_246" data-name="Path 246" d="M423.62,672.851a39.664,39.664,0,0,1-4.333.494c-.086-1.959-.137-3.307-.137-3.307l4.357-.878Z" transform="translate(-273.147 -429.964)" opacity="0.1"/>
    <path id="Path_247" data-name="Path 247" d="M442.694,667.051a30.411,30.411,0,0,1-10.939,1.03L431.7,665.6l10.508-2.108S442.5,665.429,442.694,667.051Z" transform="translate(-280.781 -426.516)" opacity="0.1"/>
    <path id="Path_248" data-name="Path 248" d="M352.8,456.583c-16.063,2.743-30.775-5.121-30.775-5.121l.141-2.664s.364-30.2-.646-32.519-1.8-14.057-1.226-15.86-2.088-28.828-2.088-28.828l-.431-10.97L302,354.232l7.052-14.7a53.048,53.048,0,0,0,2.453-6.347c1.226-3.816,6.919-7.565,6.919-7.565s5.838-3.745,8.145-3.6S331.9,318.7,331.9,318.7c2.233-5.693,4.255-3.115,4.255-3.115a5.087,5.087,0,0,1-.11.842c-.784,6.249,12.671,26,12.862,26.344h0l1.281,31.21,1.3,39.5Z" transform="translate(-201.896 -214.563)" opacity="0.1"/>
    <path id="Path_249" data-name="Path 249" d="M351.681,456.547c-16.063,2.743-30.779-5.121-30.779-5.121l.145-2.664s.364-30.2-.65-32.519-1.8-14.057-1.222-15.86-2.088-28.828-2.088-28.828l-.435-10.97-15.781-6.414,7.052-14.7a53.858,53.858,0,0,0,2.453-6.347c1.222-3.816,6.919-7.565,6.919-7.565s5.838-3.746,8.141-3.6,5.332-3.315,5.332-3.315c2.237-5.693,4.7-3.115,4.7-3.115,0,.27-.235.392-.11.842,1.724,6.061,12.24,26,12.432,26.344h0l1.3,31.21,1.3,39.5Z" transform="translate(-201.208 -214.526)" fill="#fff"/>
    <path id="Path_250" data-name="Path 250" d="M396.538,345.01c-1.728-.721-10.88-11.17-10.88-11.17v-2.378c-.333-.784-2.312-.306-3.918.243l.69-14.445.784.65C384.929,323.967,396.338,344.662,396.538,345.01Z" transform="translate(-250.394 -215.935)" opacity="0.1"/>
    <path id="Path_251" data-name="Path 251" d="M397.642,342.8c-1.732-.721-10.884-11.17-10.884-11.17v-2.378c-.333-.784-2.312-.306-3.918.243l.694-14.445.784.65C386.037,321.757,397.45,342.456,397.642,342.8Z" transform="translate(-251.063 -214.591)" fill="#fff"/>
    <path id="Path_252" data-name="Path 252" d="M351.742,517.1c.215,0,11.17-1.152,11.17-1.152s6.633,13.043,6.2,16.216-1.222,5.983-3.89,5.485-14.359.392-14.359.392Z" transform="translate(-231.613 -336.78)" opacity="0.1"/>
    <path id="Path_253" data-name="Path 253" d="M350.632,514.892c.215,0,11.17-1.152,11.17-1.152s6.629,13.047,6.2,16.216-1.226,5.983-3.891,5.485-14.359.392-14.359.392Z" transform="translate(-230.938 -335.436)" fill="#fff"/>
    <path id="Path_254" data-name="Path 254" d="M363.77,501.05s10.053,5.4,10.269,7.052-5.117-.721-6.269-1.007a14.341,14.341,0,0,0-2.308-.36l-7.683.208Z" transform="translate(-235.822 -327.718)" fill="#cf6f80"/>
    <circle id="Ellipse_6" data-name="Ellipse 6" cx="1.058" cy="1.058" r="1.058" transform="translate(142.281 127.633)" opacity="0.1"/>
    <circle id="Ellipse_7" data-name="Ellipse 7" cx="1.058" cy="1.058" r="1.058" transform="translate(142.281 127.203)" fill="#055151"/>
    <circle id="Ellipse_8" data-name="Ellipse 8" cx="1.058" cy="1.058" r="1.058" transform="translate(144.228 173.426)" opacity="0.1"/>
    <circle id="Ellipse_9" data-name="Ellipse 9" cx="1.058" cy="1.058" r="1.058" transform="translate(144.228 172.991)" fill="#055151"/>
    <circle id="Ellipse_10" data-name="Ellipse 10" cx="1.058" cy="1.058" r="1.058" transform="translate(143.334 150.53)" opacity="0.1"/>
    <circle id="Ellipse_11" data-name="Ellipse 11" cx="1.058" cy="1.058" r="1.058" transform="translate(143.334 150.099)" fill="#055151"/>
    <path id="Path_255" data-name="Path 255" d="M446.638,395.7s.721,1.081,0,1.587.071,1.728.071,1.728-1.8,1.054-1.007,2,.29,5.23.29,5.23l-2.163,3.581s.129,2.308.137,5.426c0,4.866-.286,11.707-1.869,14.825l.219,25.588s-7.573,2.766-13.913,1.924l-.94-41.06s1.371-23.284,1.877-27.75a46.5,46.5,0,0,0,.36-6.993,78.134,78.134,0,0,0-.94-10.234s-.784-14.053-.862-17.944c-.035-1.861.063-7.291.172-12.455.121-5.646.259-10.97.259-10.97l-1.43-11.315s1.43-.145,1.861.431a4.126,4.126,0,0,0,.627.482h0c2.468,1.669,11.19,6.8,11.19,6.8s4.827,1.92,5.983,4.67a40.7,40.7,0,0,0,2.519,5.485c.56.784.866,4.466.866,4.466s1.661,6.778,2.958,7.926,2.245,8.451,2.245,8.451l-11.46,9.011s-1.007,14.99-1.222,15.57S446.638,395.7,446.638,395.7Z" transform="translate(-277.861 -216.907)" fill="#fff"/>
    <path id="Path_256" data-name="Path 256" d="M447.031,395.511s.717,1.081,0,1.587.067,1.728.067,1.728-1.787,1.066-1,2.014.29,5.23.29,5.23l-2.163,3.581s.129,2.308.141,5.426c0,4.866-.286,11.707-1.869,14.825l.215,25.588s-7.585,2.766-13.916,1.924l-.936-41.06s1.371-23.284,1.877-27.75a46.072,46.072,0,0,0,.357-6.993,78.611,78.611,0,0,0-.936-10.234s-.784-14.054-.866-17.944c-.035-1.861.067-7.291.172-12.455.121-5.646.259-10.97.259-10.97L426.83,318.54s1.888,0,2.323.584a3.721,3.721,0,0,0,.627.482h0c2.468,1.669,11.193,6.8,11.193,6.8s4.823,1.92,5.979,4.67a40.049,40.049,0,0,0,2.523,5.485c.564.784.862,4.466.862,4.466s1.661,6.778,2.958,7.926,2.233,8.435,2.233,8.435l-11.46,9.011s-1.007,14.99-1.226,15.57S447.031,395.511,447.031,395.511Z" transform="translate(-277.818 -216.714)" fill="#fff"/>
    <path id="Path_257" data-name="Path 257" d="M433.981,334.666l1.034,3.017-5.446,5.485c.121-5.642.259-10.97.259-10.97L427.94,320.73s1.888,0,2.323.584a3.577,3.577,0,0,0,.627.478h0l4.631,13.36Z" transform="translate(-278.494 -218.046)" opacity="0.1"/>
    <path id="Path_258" data-name="Path 258" d="M432.871,332.456l1.038,3.017-5.446,5.485c.121-5.646.259-10.97.259-10.97L426.83,318.52s1.892,0,2.323.584a3.921,3.921,0,0,0,.627.482h0l4.635,13.356Z" transform="translate(-277.818 -216.702)" fill="#fff"/>
    <path id="Path_259" data-name="Path 259" d="M400.636,257.087a13.271,13.271,0,0,1-.658,4.157.56.56,0,0,1-.423-.106c-.1-3.526-1.837-6.837-3.973-9.654a10.143,10.143,0,0,0-2.155-2.233,4.216,4.216,0,0,0-2.923-.827c-1.175.161-2.214.96-3.4,1.062-1.567.129-2.97-.956-4.525-1.011a4.447,4.447,0,0,0-3.326,1.544,9.125,9.125,0,0,0-1.783,3.307,19.346,19.346,0,0,0-1,5.7c-.02,1.1-.125,2.472-1.144,2.872a5.853,5.853,0,0,0-1.477-4.47l-.023-.024v-.321a13.406,13.406,0,1,1,26.812,0Z" transform="translate(-245.583 -171.183)" opacity="0.1"/>
    <path id="Path_260" data-name="Path 260" d="M386.428,222.207a9.23,9.23,0,0,0-6.512-.509c-1.085.321-2.108.842-3.209,1.1-2.351.568-5.093-.047-7.111,1.328a8.5,8.5,0,0,0-2.421,3.224l-1.567,2.985a19.372,19.372,0,0,0-2.073,5.093,6.5,6.5,0,0,0,1,5.258c.831,1.054,2.057,1.716,2.958,2.707a5.877,5.877,0,0,1,1.473,4.466c1.023-.392,1.12-1.771,1.144-2.868a19.348,19.348,0,0,1,1-5.7,9.094,9.094,0,0,1,1.783-3.307,4.455,4.455,0,0,1,3.326-1.544c1.567.055,2.974,1.136,4.525,1.007,1.175-.1,2.218-.9,3.4-1.058a4.2,4.2,0,0,1,2.923.827,10.037,10.037,0,0,1,2.151,2.233c2.139,2.817,3.875,6.12,3.977,9.654.443.325,1.081-.1,1.3-.6a14.324,14.324,0,0,1,.505-1.567,5.779,5.779,0,0,1,1.418-1.262,5.545,5.545,0,0,0,1.481-4.439,22.113,22.113,0,0,1-.055-4.827c.184-.972.6-1.881.827-2.84a3.714,3.714,0,0,0-.282-2.864c-.784-1.215-2.433-1.454-3.871-1.567-1.634-.141-3.1.039-4.137-1.336a15,15,0,0,0-1.646-2.014C388.524,223.586,386.428,222.293,386.428,222.207Z" transform="translate(-239.227 -157.589)" fill="#512e4e"/>
    <path id="Path_261" data-name="Path 261" d="M305.151,422.7l-4.094-7.569-1.3,11.679a54.134,54.134,0,0,1,.576,5.983c-.145.8,2.954,7.926,2.954,7.926s10.237,18.234,14.418,19.174L331.832,449.8l-3.746-4.756s-1.3-.505-1.622,0c0,0-6.954-11.965-7.675-12.831a4.322,4.322,0,0,1-.58-2.594s-1.081-1.152-.721-2.233-2.088-4.831-2.088-4.831l2.233-2.088Z" transform="translate(-200.533 -275.461)" opacity="0.1"/>
    <path id="Path_262" data-name="Path 262" d="M299.928,412.93l-1.081.862-1.3,11.679a54.128,54.128,0,0,1,.576,5.983c-.145.8,2.958,7.926,2.958,7.926s10.234,18.234,14.414,19.174l14.128-10.092-3.749-4.756s-1.3-.505-1.622,0c0,0-6.954-11.965-7.675-12.831A4.308,4.308,0,0,1,316,428.28s-1.081-1.152-.721-2.233-2.092-4.831-2.092-4.831l2.233-2.088Z" transform="translate(-199.189 -274.123)" fill="#fff"/>
    <path id="Path_263" data-name="Path 263" d="M462.2,518.878c.784.952.29,5.226.29,5.226l-2.163,3.581s.129,2.311.137,5.426l-3.636,1.136a2.159,2.159,0,0,1-2.8-2.128l.627-20.22,8.482,3.244c-.721.5.07,1.732.07,1.732S461.41,517.926,462.2,518.878Z" transform="translate(-294.36 -334.317)" opacity="0.1"/>
    <path id="Path_264" data-name="Path 264" d="M463.305,517.774c.784.952.29,5.23.29,5.23l-2.163,3.581s.129,2.308.141,5.426l-3.7,1.156a2.116,2.116,0,0,1-2.743-2.084l.631-20.283,8.486,3.244c-.725.5.067,1.728.067,1.728S462.522,516.826,463.305,517.774Z" transform="translate(-295.029 -333.648)" fill="#fff"/>
    <path id="Path_265" data-name="Path 265" d="M472.636,499.1s-.576,3.679-2.018,3.894-2.088,5.951-3.526,5.748-.486-5.332-.435-6.327-1.567-5.117-.357-6.053,5.042,0,5.042,0Z" transform="translate(-301.551 -324.615)" fill="#cf6f80"/>
    <path id="Path_266" data-name="Path 266" d="M473.407,423.175l2.719-5.485a35.61,35.61,0,0,1,1.081,6.414c0,2.233,1.512,2.453,1.512,2.453s1.657,1.959.784,3.385-1.226,4.976-1.226,4.976.286,6.774-1.011,7.71A5.248,5.248,0,0,0,475.7,445.8s-2.382,4.251-2.308,5.262-3.315,7.855-3.315,7.855,1.657-8.506-8-12.181c0,0-.074-2.887.646-3.679s1.845-1.152,1.14-5.152a46.723,46.723,0,0,1-.2-9.74c0-.96,2.163-6.946,2.163-6.946Z" transform="translate(-299.254 -277.018)" opacity="0.1"/>
    <path id="Path_267" data-name="Path 267" d="M475.854,415.69l2.374.784a35.494,35.494,0,0,1,1.085,6.414c0,2.233,1.512,2.453,1.512,2.453s1.657,1.959.784,3.385-1.222,4.976-1.222,4.976.286,6.774-1.011,7.71a5.319,5.319,0,0,0-1.587,3.173s-2.378,4.251-2.3,5.262-3.318,7.855-3.318,7.855,1.661-8.506-8-12.181c0,0-.07-2.887.65-3.679s1.845-1.152,1.14-5.152a46.723,46.723,0,0,1-.2-9.74c0-.96,2.163-6.946,2.163-6.946Z" transform="translate(-300.526 -275.801)" fill="#fff"/>
    <path id="Path_268" data-name="Path 268" d="M360.15,776.574s3.785-2.378,6.269-.65S360.15,776.574,360.15,776.574Z" transform="translate(-237.263 -494.516)" opacity="0.1"/>
    <path id="Path_269" data-name="Path 269" d="M435.21,759.757a7.662,7.662,0,0,1,6.163,2.6C444.186,765.383,435.21,759.757,435.21,759.757Z" transform="translate(-282.915 -485.053)" opacity="0.1"/>
    <g id="Group_313" data-name="Group 313" transform="translate(124.154 72.348)" opacity="0.1">
      <path id="Path_270" data-name="Path 270" d="M405.121,261.743a5.812,5.812,0,0,0-1.422,1.265,14.351,14.351,0,0,0-.5,1.567c-.219.509-.858.925-1.3.6-.1-3.526-1.841-6.837-3.977-9.658a10.039,10.039,0,0,0-2.151-2.233,4.212,4.212,0,0,0-2.927-.827c-1.175.161-2.21.96-3.4,1.058-1.567.133-2.974-.952-4.529-1.007a4.435,4.435,0,0,0-3.322,1.548,9.074,9.074,0,0,0-1.783,3.3,19.37,19.37,0,0,0-1,5.7c-.023,1.093-.125,2.457-1.136,2.864a5.367,5.367,0,0,1,0,.87c1.019-.392,1.121-1.771,1.144-2.868a19.346,19.346,0,0,1,1-5.7,9.094,9.094,0,0,1,1.783-3.307,4.447,4.447,0,0,1,3.322-1.544c1.567.055,2.978,1.136,4.529,1.007,1.175-.1,2.217-.9,3.4-1.058a4.212,4.212,0,0,1,2.927.827,10.038,10.038,0,0,1,2.151,2.233c2.135,2.817,3.875,6.12,3.977,9.654.443.325,1.081-.1,1.3-.6a15.2,15.2,0,0,1,.5-1.567,5.8,5.8,0,0,1,1.422-1.262,5.545,5.545,0,0,0,1.481-4.439v-.149A5.144,5.144,0,0,1,405.121,261.743Z" transform="translate(-372.079 -248.861)"/>
      <path id="Path_271" data-name="Path 271" d="M367.5,266.292c-.9-.991-2.131-1.653-2.958-2.7a5.736,5.736,0,0,1-1.14-3.209,6.034,6.034,0,0,0,1.14,4.071c.827,1.054,2.057,1.716,2.958,2.707a5.877,5.877,0,0,1,1.477,3.495A5.877,5.877,0,0,0,367.5,266.292Z" transform="translate(-363.385 -253.688)"/>
      <path id="Path_272" data-name="Path 272" d="M451.977,244.076c-.231.96-.643,1.873-.831,2.84a9.052,9.052,0,0,0-.122,1.959,7.618,7.618,0,0,1,.122-1.113c.188-.972.6-1.881.831-2.84a4.819,4.819,0,0,0,.129-1.622A5.438,5.438,0,0,1,451.977,244.076Z" transform="translate(-416.682 -243.3)"/>
    </g>
    <ellipse id="Ellipse_12" data-name="Ellipse 12" cx="38.176" cy="6.132" rx="38.176" ry="6.132" transform="translate(14.118 285.725)" fill="#00b3ad" opacity="0.1"/>
    <rect id="Rectangle_87" data-name="Rectangle 87" width="2.457" height="55.309" transform="translate(51.068 174.398)" fill="#535461"/>
    <path id="Path_273" data-name="Path 273" d="M170.773,638.683l-.153,2.492L170.4,644.7l-.09,1.465-.215,3.526L170,651.158l-.219,3.526-2.476,39.99a6.778,6.778,0,0,1-6.762,6.355H147.669a6.774,6.774,0,0,1-6.758-6.355l-2.464-40.017-.219-3.526-.09-1.465-.219-3.526-.09-1.465-.219-3.526-.157-2.492a3.526,3.526,0,0,1,3.526-3.726H167.31a3.5,3.5,0,0,1,3.463,3.753Z" transform="translate(-101.812 -409.145)" fill="#055151"/>
    <path id="Path_274" data-name="Path 274" d="M123.608,592.24l-.219,3.514H90.8l-.219-3.514Z" transform="translate(-54.8 -360.21)" fill="#9d9cb5"/>
    <path id="Path_275" data-name="Path 275" d="M123.779,604.95l-.215,3.518H91.589l-.219-3.518Z" transform="translate(-55.28 -367.941)" fill="#9d9cb5"/>
    <path id="Path_276" data-name="Path 276" d="M123.95,617.68l-.215,3.514H92.379l-.219-3.514Z" transform="translate(-55.761 -375.683)" fill="#9d9cb5"/>
    <path id="Path_277" data-name="Path 277" d="M79.289,539.7c14.3,10.351,20.275,26.54,20.275,26.54s-17.239-.592-31.547-10.943S47.75,528.76,47.75,528.76,64.981,529.348,79.289,539.7Z" transform="translate(-47.258 -344.572)" fill="#00b3ad"/>
    <path id="Path_278" data-name="Path 278" d="M47.72,528.76s17.9,9.932,23.637,18.156,28.189,19.323,28.189,19.323" transform="translate(-47.24 -344.572)" fill="none" stroke="#535461" stroke-miterlimit="10" stroke-width="2"/>
    <path id="Path_279" data-name="Path 279" d="M125.168,494.215a34.785,34.785,0,0,1,11.041,14.441,34.717,34.717,0,0,1-17.172-5.951A34.715,34.715,0,0,1,108,488.26,34.69,34.69,0,0,1,125.168,494.215Z" transform="translate(-83.903 -319.939)" fill="#00b3ad"/>
    <path id="Path_280" data-name="Path 280" d="M108,488.26s9.74,5.407,12.862,9.881,15.346,10.516,15.346,10.516" transform="translate(-83.903 -319.939)" fill="none" stroke="#535461" stroke-miterlimit="10" stroke-width="2"/>
    <path id="Path_281" data-name="Path 281" d="M192.027,519.109c-8.945,9.83-10.837,22.677-10.837,22.677s12.612-3.1,21.548-12.929,10.837-22.677,10.837-22.677S200.971,509.279,192.027,519.109Z" transform="translate(-128.418 -330.838)" fill="#00b3ad"/>
    <path id="Path_282" data-name="Path 282" d="M213.583,506.19s-11.652,10.077-14.614,17.019-17.779,18.583-17.779,18.583" transform="translate(-128.418 -330.844)" fill="none" stroke="#535461" stroke-miterlimit="10" stroke-width="2"/>
    <path id="Path_283" data-name="Path 283" d="M910.4,368.166s-6.468-32.182-3.992-36.186c0,0,.09-3.722-.059-8.467v-.545a12.06,12.06,0,0,0,1.36.784,11,11,0,0,0,7.4.956l-1.959-2.182a3.616,3.616,0,0,1-1.062-1.775,3.718,3.718,0,0,1,.423-1.92c1.861-4.7,1.959-10.614-1.626-14.2-3.029-3.017-3.765-6.911-7.052-9.665-2.4-2.018-3.722-4.976-4.968-7.836a44.079,44.079,0,0,1-2.719-7.417c-.47-2-.658-4.075-1.3-6.03a7.675,7.675,0,0,0-3.749-4.729,14.154,14.154,0,0,1-2.037-.9,8.8,8.8,0,0,1-1.877-2.206c-2.966-3.918-12.9-1.61-17.6-.02a9.9,9.9,0,0,0-3.479,1.928l.043-.071c.035-.059.078-.118.118-.176a6.183,6.183,0,0,0-1.316,1.469,35.249,35.249,0,0,0-1.544,3.526c-.69,1.391-4.525,5.274-2.876,6.837a1.39,1.39,0,0,0,.392.251,3.389,3.389,0,0,0,1.959.2l-.07.168a11.451,11.451,0,0,0-.85,4.345,11.759,11.759,0,0,0,11.863,11.656,11.977,11.977,0,0,0,3.632-.56c.027.149.051.3.078.447a1.367,1.367,0,0,0,.027.176h0l-.208.29a.388.388,0,0,0-.035-.051l-6.151,8.6c-.94.662-6.355,4.58-6.66,7.518-.321,3.217-.643,6.982-.643,6.982l-.043.807a2.421,2.421,0,0,1-1.959.529c-1.92-.313-1.92,7.052-1.92,7.052s-1.277,1.175-2.155.157-3.2,2.433-3.2,2.433l-14.535.627h0l-.333.02-.784-2.425a1.023,1.023,0,0,0-1.281-.654,1.17,1.17,0,0,0-.176.074l-.055.031-.1.071-.051.047a.792.792,0,0,0-.078.082l-.047.055-.023.023h0a.988.988,0,0,0-.141.878l.674,2.08c-2.805.564-5.673,2.155-3.334,6.535l-11.856-2.19,3.836,3.221,19.8,4.086c-.262.47-.09,1.152.729,2.112,3.526,4.141,9.952,5.266,12.537,5.556a22.258,22.258,0,0,0,2.543,4.31L861.692,359s-6.547,31.445-7.746,33.04a18.637,18.637,0,0,0,1.657-2.182c-1.9,6.461-4.557,15.3-5.254,16.628-1.12,2.116-2.159,10.676-.881,11.225a10.747,10.747,0,0,0,3.111-.035v.709l-.071,26.873s.321,16.483-.56,18.054a15.367,15.367,0,0,0-1.117,4.866s-3.526,6.5-6.32,9.113a.416.416,0,0,1-.063.055l-.086-.611s-3.358,4.239-10.786,4c0,0-4.47,2.907,2.159,3.064s15.1-.235,15.1-.235,5.912-9.011,10.864-7.836v6.829h1.516v-6.939a6.218,6.218,0,0,0,2.7-4.086,4.968,4.968,0,0,0-1.771-4.6,2.939,2.939,0,0,1-.968-2.147l-.055.047a4.155,4.155,0,0,0-.051-.423c-.435-3.526-.979-10.8.944-16.185,2.637-7.381,3.436-17.662,1.516-23.782A54.693,54.693,0,0,1,864,418.483c-.047-.255-.09-.5-.129-.725a30.89,30.89,0,0,1,3.891.784c4.447,1.226,14.175,1.454,22.481,1.387.02.227.043.466.07.705a25.662,25.662,0,0,0,.925,4.905c1.042,3.134,1.52,16.953,1.52,16.953s1.344,11.362.611,15.985c-.392,2.57-.784,5.152-1.007,7.746v.051s-2.2,6.269-3.812,9.673c-.039.086-.082.172-.122.255a5.092,5.092,0,0,0-1.258.278s-2.159,4.31-4.31,5.023-1.438,3.06,3.432,2.2,12.224-1.567,12.224-1.567l.317-4.4,1.5-1.873-.392,4.384,1.595-.313-.211-5.332,2.449-3.064s2.958-2.633-1.438-7.812v.114c-.047-.074-.09-.153-.141-.227v-.023c-.729-1.128-1.309-3.232-.247-6.966,1.92-6.747,3.036-12.87,3.036-12.87s4.286-16.4-.866-24.166h.227a13.053,13.053,0,0,1-1.109-3.448q-.039-.212-.071-.435a28.271,28.271,0,0,0,10.606-2.4C913.761,413.292,911.923,374.364,910.4,368.166Zm-48.4-27.151v.078l-.784.039Zm-2.688.372a.865.865,0,0,0-.353.168,3.48,3.48,0,0,0-.615,1.61l-1.222-.274s-.858-.184-2.092-.392l-.584-.588C856.058,341.779,857.727,341.583,859.318,341.387Z" transform="translate(-518.451 -183.355)" fill="url(#linear-gradient-2)"/>
    <path id="Path_284" data-name="Path 284" d="M971.786,742.314l-.466,5.552,1.563-.313-.235-6.022Z" transform="translate(-590.475 -451.01)" fill="#055151"/>
    <path id="Path_285" data-name="Path 285" d="M895.629,683.286c-1.885,5.367-1.352,12.612-.929,16.13.157,1.3.3,2.092.3,2.092s-2.817,6.418-3.052,6.66-8.29,5.16-8.29,5.16l-5.63,3.287s-5.712-2.5-2.974-3.365a4.156,4.156,0,0,0,1.477-1.007c2.742-2.605,6.186-9.082,6.186-9.082a15.62,15.62,0,0,1,1.1-4.85c.862-1.563.549-17.991.549-17.991l.067-26.779V650.05l10.715.078a24.257,24.257,0,0,0,.462,3.526,53.926,53.926,0,0,0,1.493,5.94C898.991,665.7,898.207,675.932,895.629,683.286Z" transform="translate(-549.982 -418.341)" fill="#ffb0b1"/>
    <path id="Path_286" data-name="Path 286" d="M895,778.154s-2.817,6.418-3.052,6.66-8.29,5.16-8.29,5.16l-5.63,3.287s-5.712-2.5-2.974-3.365a4.158,4.158,0,0,0,1.477-1.007l.243,1.712,1.877-.078,16.063-14.453C894.858,777.363,895,778.154,895,778.154Z" transform="translate(-549.982 -494.988)" opacity="0.1"/>
    <path id="Path_287" data-name="Path 287" d="M879.357,777,863.2,791.551l-1.877.078-.392-2.743s-3.283,4.224-10.578,3.988c0,0-4.38,2.9,2.112,3.052s14.782-.235,14.782-.235,5.791-9.011,10.637-7.836v6.805h1.489v-6.868a6.186,6.186,0,0,0,2.641-4.075,4.991,4.991,0,0,0-1.728-4.576,2.951,2.951,0,0,1-.932-2.143Z" transform="translate(-534.533 -495.554)" fill="#055151"/>
    <path id="Path_288" data-name="Path 288" d="M1000.964,691.2c-1.042,3.722-.474,5.818.239,6.942v.024a12.832,12.832,0,0,1,1.873,4.572l.063.353-7.35,10.716-3.988,1.567s-6.414-2.19-5.242-2.817a6,6,0,0,0,1.277-2.092c1.567-3.389,3.73-9.642,3.73-9.642v-.051c.227-2.582.588-5.156.987-7.718.717-4.611-.6-15.93-.6-15.93s-.47-13.764-1.489-16.894a25.835,25.835,0,0,1-.913-4.874c-.212-1.959-.259-3.573-.259-3.573s4.223-5.877,11.965.47a8.522,8.522,0,0,1,1.618,1.755c5.348,7.609,1.042,24.369,1.042,24.369S1002.841,684.474,1000.964,691.2Z" transform="translate(-618.164 -417.888)" fill="#ffb0b1"/>
    <path id="Path_289" data-name="Path 289" d="M1003.169,778.762l-7.35,10.716-3.988,1.567s-6.414-2.19-5.242-2.817a6,6,0,0,0,1.277-2.092,5.069,5.069,0,0,1,4.122,2.562l3.44-.548s4.537-8.917,5.556-9.462.157-4.071.157-4.071v-.9c.027.031.051.067.082.1v.023a12.831,12.831,0,0,1,1.873,4.572Z" transform="translate(-618.182 -493.559)" opacity="0.1"/>
    <path id="Path_290" data-name="Path 290" d="M984.014,789.282s-1.959-3.6-5.712-2.268c0,0-2.112,4.31-4.224,5.007s-1.407,3.048,3.365,2.19,11.965-1.567,11.965-1.567l.313-4.384,4.85-6.179s2.891-2.621-1.41-7.781v.9s.862,3.526-.157,4.071-5.54,9.466-5.54,9.466Z" transform="translate(-609.974 -493.912)" fill="#055151"/>
    <path id="Path_291" data-name="Path 291" d="M910.867,650.108a24.264,24.264,0,0,0,.462,3.526,49.156,49.156,0,0,0-11.19-.114V650.03Z" transform="translate(-565.69 -418.329)" opacity="0.1"/>
    <path id="Path_292" data-name="Path 292" d="M1007.8,654.978s-6.269.306-13.744.368c-.212-1.959-.259-3.573-.259-3.573s4.224-5.877,11.965.47a8.519,8.519,0,0,1,1.618,1.755,9.547,9.547,0,0,0,.419.979Z" transform="translate(-622.655 -417.882)" opacity="0.1"/>
    <path id="Path_293" data-name="Path 293" d="M945.224,547.736s-27.457,1.328-35.825-1.019-16.663-.313-17.913-.858-.235-9.074.862-11.186,7.115-23.468,7.115-23.468l5.791-30.191,6.1-1.681.431-.121,10.629-2.931,7.789-2.151s15.487,60.465,14.159,64.924a11.417,11.417,0,0,0-.227,5.246A13.1,13.1,0,0,0,945.224,547.736Z" transform="translate(-560.077 -311.345)" fill="#055151"/>
    <path id="Path_294" data-name="Path 294" d="M871.52,439s-5.485,5.877-1.332,9.152,6.884.313,6.884.313Z" transform="translate(-546.528 -289.979)" fill="#c7daf5"/>
    <path id="Path_295" data-name="Path 295" d="M871.52,439s-5.485,5.877-1.332,9.152,6.884.313,6.884.313Z" transform="translate(-546.528 -289.979)" opacity="0.1"/>
    <path id="Path_296" data-name="Path 296" d="M970.894,323.75s-.642.611-1.61,1.512c-1.379,1.289-3.42,3.174-5.23,4.752-2.507,2.182-4.576,3.785-3.836,2.417s.6-3.749.231-5.979c-.027-.149-.051-.3-.078-.443a41.037,41.037,0,0,0-1.211-4.843,83.765,83.765,0,0,1,6.292-7.3c.834-.784,1.418-1.1,1.453-.56a18.206,18.206,0,0,0,1.269,4.067c.02.055.039.106.063.161.454,1.175.968,2.382,1.418,3.424C970.346,322.559,970.894,323.75,970.894,323.75Z" transform="translate(-601.587 -213.367)" fill="#ffb0b1"/>
    <path id="Path_297" data-name="Path 297" d="M968.238,317.544a11.628,11.628,0,0,1-7.789,8.917,40.779,40.779,0,0,0-1.289-5.285s7.628-9.854,7.746-7.859A18.639,18.639,0,0,0,968.238,317.544Z" transform="translate(-601.587 -213.375)" opacity="0.1"/>
    <path id="Path_298" data-name="Path 298" d="M937.739,351.841l.987-1.391s.654,3.988,3.06,2.229,2.523,13.239,2.523,13.239l-2.582,38.6L923.07,403.4l.529-18.653,2.112-9.4,5.223-13.67,3.107-4.517Z" transform="translate(-579.637 -236.122)" opacity="0.1"/>
    <path id="Path_299" data-name="Path 299" d="M944.327,366.5l-2.351,34.9-.247,3.7-10.4-.623-.392-.023-7.836-.47.529-18.657,2.112-9.4,5.223-13.669,3.107-4.517,3.7-5.34.987-1.387s.654,3.988,3.06,2.229l.051-.035h0C944.218,351.715,944.327,366.5,944.327,366.5Z" transform="translate(-579.655 -236.462)" fill="#055151"/>
    <path id="Path_300" data-name="Path 300" d="M892.977,406.26s-.936,1.959-2.817,1.642-1.877,7.052-1.877,7.052-1.25,1.175-2.112.157-3.134,2.425-3.134,2.425l-14.238.627s6.335,2.9,5.093,11.656c0,0,21.509-1.332,22.215-3.365S892.977,406.26,892.977,406.26Z" transform="translate(-546.629 -270.066)" fill="#fff"/>
    <path id="Path_301" data-name="Path 301" d="M892.977,406.26s-.936,1.959-2.817,1.642-1.877,7.052-1.877,7.052-1.25,1.175-2.112.157-3.134,2.425-3.134,2.425l-14.238.627s6.335,2.9,5.093,11.656c0,0,21.509-1.332,22.215-3.365S892.977,406.26,892.977,406.26Z" transform="translate(-546.629 -270.066)" opacity="0.03"/>
    <path id="Path_302" data-name="Path 302" d="M777.66,389.76l3.753,3.2,30.9,6.492-3.832-3.91Z" transform="translate(-472.689 -237.06)" fill="#fff"/>
    <path id="Path_303" data-name="Path 303" d="M925.937,351.463a79.063,79.063,0,0,0-3.209,8.3c-1.022,2.919-1.877,5.485-1.877,5.485s-1.994,12.984-3.013,15.331-.466,11.5-.466,11.5l-3.8,22.6s-1.72,11.656-4.376,18.618c-2.621,6.852-5.54,10.065-5.63,10.167,1.175-1.591,7.581-32.91,7.581-32.91l2.116-39.5s.309-3.753.623-6.962,6.66-7.589,6.66-7.589l6.12-8.7C927.285,348.623,926.874,350.057,925.937,351.463Z" transform="translate(-567.777 -234.51)" fill="#fff"/>
    <path id="Path_304" data-name="Path 304" d="M897.891,473.269s-9.011-.392-13.376-5.634,10.089-2.092,10.089-2.092l3.757.862Z" transform="translate(-555.688 -305.552)" fill="#ffb0b1"/>
    <path id="Path_305" data-name="Path 305" d="M976.1,467.474a11.416,11.416,0,0,0-.227,5.246c-9.83.7-20.346-1.959-20.346-1.959-1.959,1.8-7.119,4.459-7.119,4.459l-2.813-34.869c-1.8-4.7-2.5-29.333-2.5-29.333s.161-1.289.392-3.22a.37.37,0,0,1,.02-.145c.7-5.395,2.092-15.523,2.774-16.89.94-1.881-2.891-6.884-2.891-6.884l1.743-14.868.212-1.794c3.675-1.642,6.492-6.884,6.492-6.884l2.163-3.789h0c2.351-1.508,2.472,13.274,2.472,13.274l-2.351,34.9,7.789-2.151S977.426,463.015,976.1,467.474Z" transform="translate(-591.813 -239.761)" opacity="0.1"/>
    <path id="Path_306" data-name="Path 306" d="M986.917,455.387c-10.715,5.32-30.191.392-30.191.392-1.959,1.8-7.119,4.459-7.119,4.459l-2.817-34.869c-1.794-4.7-2.5-29.333-2.5-29.333s2.265-18.379,3.2-20.256a3.019,3.019,0,0,0-.184-2.241,28.357,28.357,0,0,1-1.716-13.121l.752-6.39.208-1.791c3.679-1.646,6.5-6.888,6.5-6.888l1.959-3.432,3.6-6.323,1.708-2.993.29.263,2.214,2.006,2.351,1.959c3.068,2.586,8.369,7.138,11.1,9.924,2.406,2.453,3.166,11.993,3.385,19.174.145,4.729.059,8.435.059,8.435-2.425,3.992,3.918,36.045,3.918,36.045C985.118,416.6,986.917,455.387,986.917,455.387Z" transform="translate(-592.543 -225.265)" fill="#fff"/>
    <path id="Path_307" data-name="Path 307" d="M949.4,364.082s-7.354,14-6.5,19.319,3.283,11.342,2.112,12.749a4.329,4.329,0,0,1-3.444,1.72c-1.175.078-4.31,2.268-4.31,2.5s-2.9.235-5.485,1.332a34.151,34.151,0,0,1-6.414,1.72s-7.444-.235-8.138.47-1.406,4.925.078,8.29,3.134,5.877,4.38,6.335,9.152-2.19,15.566-2.817S950.627,410,950.627,410s7.667-2.743,9.011-7.354S958,372.686,958,372.686,955.74,360.873,949.4,364.082Z" transform="translate(-575.6 -244.077)" opacity="0.03"/>
    <path id="Path_308" data-name="Path 308" d="M947.022,361.084s-7.354,14-6.492,19.319,3.283,11.342,2.108,12.753a4.31,4.31,0,0,1-3.44,1.72c-1.175.078-4.31,2.268-4.31,2.5s-2.9.235-5.485,1.328a34.491,34.491,0,0,1-6.414,1.72s-7.444-.235-8.134.47-1.411,4.929.078,8.29,3.134,5.877,4.38,6.335,9.152-2.19,15.566-2.813S948.257,407,948.257,407s7.663-2.742,8.992-7.35-1.642-29.96-1.642-29.96S953.358,357.879,947.022,361.084Z" transform="translate(-574.158 -242.254)" opacity="0.03"/>
    <path id="Path_309" data-name="Path 309" d="M948.827,362.291s-7.354,14-6.492,19.319,3.283,11.342,2.112,12.749A4.31,4.31,0,0,1,941,396.083c-1.175.078-4.31,2.268-4.31,2.5s-2.891.235-5.485,1.332a34.232,34.232,0,0,1-6.414,1.72s-7.444-.235-8.138.47-1.407,4.929.078,8.29,3.134,5.877,4.38,6.335,9.152-2.19,15.566-2.817,13.376-5.708,13.376-5.708,7.667-2.743,9.011-7.354-1.622-29.956-1.622-29.956S955.158,359.1,948.827,362.291Z" transform="translate(-575.253 -242.99)" fill="#fff"/>
    <path id="Path_310" data-name="Path 310" d="M992.971,458.457s-5.877-1.175-3.832.784,2.033,3.675,4.537,3.6S992.971,458.457,992.971,458.457Z" transform="translate(-619.558 -301.6)" opacity="0.1"/>
    <path id="Path_311" data-name="Path 311" d="M1023.863,566.58s-2.656,1.8,2.425,5.943S1023.863,566.58,1023.863,566.58Z" transform="translate(-640.518 -367.574)" opacity="0.1"/>
    <path id="Path_312" data-name="Path 312" d="M1011.823,604.31c0,.235-.94,8.619,2.578,10.715S1011.823,604.31,1011.823,604.31Z" transform="translate(-633.548 -390.522)" opacity="0.1"/>
    <path id="Path_313" data-name="Path 313" d="M859.054,436.59c-2.837.1-8.964.964-5.787,6.892,2.809,5.246,7.53,1.74,10.186-.921A10.01,10.01,0,0,0,859.054,436.59Z" transform="translate(-536.64 -288.513)" fill="#ffb0b1"/>
    <path id="Path_314" data-name="Path 314" d="M881.39,451Z" transform="translate(-554.286 -297.277)" fill="#ffb0b1"/>
    <path id="Path_315" data-name="Path 315" d="M880.74,451.521l.118-.121Z" transform="translate(-553.891 -297.521)" fill="#ffb0b1"/>
    <path id="Path_316" data-name="Path 316" d="M968.369,337.425c-3.009,2.057-5.532,3.793-6.026,4.153-1.348,1-3.918,6.864-5.575,9.857-1.32,2.41-5.61,3.029-7.228,3.181l.208-1.79c3.679-1.646,6.5-6.888,6.5-6.888l7.272-12.749,2.5,2.276Z" transform="translate(-595.736 -225.624)" opacity="0.1"/>
    <path id="Path_317" data-name="Path 317" d="M968.369,336.825c-3.009,2.057-5.532,3.793-6.026,4.157-1.348,1-3.918,6.86-5.575,9.854-1.32,2.41-5.61,3.029-7.228,3.181l.208-1.79c3.679-1.646,6.5-6.888,6.5-6.888l7.272-12.749,2.5,2.268S966.959,335.634,968.369,336.825Z" transform="translate(-595.736 -225.259)" fill="#dce7ff"/>
    <path id="Path_318" data-name="Path 318" d="M946.738,299.882A11.62,11.62,0,1,1,936.86,288.4a11.6,11.6,0,0,1,9.879,11.487Z" transform="translate(-579.896 -198.299)" fill="#ffb0b1"/>
    <path id="Path_319" data-name="Path 319" d="M968.328,338.963a10.328,10.328,0,0,1-3.749-4.028c-.654-1.293-1.089-2.786-2.206-3.7a9.8,9.8,0,0,0-3.6-1.391c-4.122-1.218-7.577-4.98-7.707-9.274-.063-2.022.568-4.039.282-6.041a6.692,6.692,0,0,0-1.309-3.115,10.724,10.724,0,0,0-1.132-1.218c-.548-.517-1.124-1.019-1.626-1.567a6.086,6.086,0,0,1-.823-1.117,5.372,5.372,0,0,1-.451-1.038c-.784-2.4-.07-5.242-.932-7.667l-.047-.133a2.494,2.494,0,0,0-1.908-1.79c-.921-.067-1.708.7-2.586,1.038-1.838.713-3.82-.5-5.352-1.74s-3.26-2.652-5.207-2.378c-1.289.184-2.308,1.062-3.495,1.516a4.9,4.9,0,0,1-.827.239,11.617,11.617,0,0,1,22.4,4.329,11.5,11.5,0,0,1-.255,2.425c.02.055.039.106.063.161.454,1.175.968,2.382,1.418,3.424l2.214,2.006,2.351,1.959c3.068,2.586,8.369,7.138,11.1,9.924C967.348,322.245,968.1,331.781,968.328,338.963Z" transform="translate(-581.206 -198.298)" opacity="0.1"/>
    <path id="Path_320" data-name="Path 320" d="M922.418,274.317c.56-1.14.839-2.417,1.508-3.5a8.336,8.336,0,0,1,4.462-3.177c4.6-1.587,14.332-3.89,17.239,0a8.482,8.482,0,0,0,1.838,2.194,13.641,13.641,0,0,0,1.994.9,7.621,7.621,0,0,1,3.667,4.7c.631,1.935.819,4.012,1.281,6.006a44.16,44.16,0,0,0,2.664,7.393c1.218,2.844,2.511,5.795,4.862,7.8,3.209,2.743,3.918,6.625,6.9,9.634,3.526,3.573,3.412,9.47,1.594,14.151a3.887,3.887,0,0,0-.415,1.912,3.75,3.75,0,0,0,1.038,1.771l1.928,2.174a10.839,10.839,0,0,1-11.844-5.462c-.654-1.293-1.089-2.782-2.21-3.7a9.771,9.771,0,0,0-3.6-1.387c-4.122-1.222-7.577-4.987-7.707-9.281-.063-2.018.568-4.035.282-6.034a6.663,6.663,0,0,0-1.312-3.134c-1.077-1.406-2.7-2.351-3.581-3.918-1.485-2.621-.356-6.026-1.426-8.839a2.5,2.5,0,0,0-1.908-1.791c-.921-.067-1.708.7-2.59,1.038-1.834.713-3.816-.5-5.348-1.74s-3.26-2.652-5.211-2.374c-1.289.18-2.3,1.058-3.491,1.516-.878.337-2.656.639-3.424-.1C917.983,279.579,921.74,275.712,922.418,274.317Z" transform="translate(-577.284 -184.456)" fill="#591d4b"/>
    <path id="Path_321" data-name="Path 321" d="M962.089,325.442c-.658-1.293-1.089-2.782-2.21-3.7a9.769,9.769,0,0,0-3.6-1.391c-4.118-1.218-7.573-4.984-7.706-9.278-.063-2.018.568-4.039.286-6.037a6.7,6.7,0,0,0-1.312-3.115c-1.081-1.407-2.707-2.351-3.581-3.918-1.485-2.617-.356-6.022-1.43-8.839a2.508,2.508,0,0,0-1.9-1.79c-.917-.071-1.712.7-2.59,1.042-1.834.713-3.82-.5-5.348-1.74s-3.264-2.652-5.211-2.378c-1.289.184-2.308,1.062-3.491,1.516-.878.337-2.66.643-3.428-.1-1.614-1.567,2.143-5.426,2.817-6.813a37.557,37.557,0,0,1,1.512-3.5c.035-.059.075-.118.114-.176a6.222,6.222,0,0,0-1.289,1.465,38.078,38.078,0,0,0-1.508,3.5c-.678,1.387-4.435,5.258-2.817,6.813.784.744,2.547.439,3.424.1,1.175-.458,2.2-1.336,3.491-1.516,1.959-.278,3.683,1.136,5.211,2.374s3.526,2.453,5.352,1.74c.878-.341,1.646-1.109,2.586-1.038a2.5,2.5,0,0,1,1.908,1.79c1.069,2.813-.059,6.218,1.426,8.839.878,1.54,2.5,2.5,3.581,3.918a6.659,6.659,0,0,1,1.313,3.134c.286,2-.345,4.016-.282,6.034.129,4.31,3.585,8.059,7.706,9.282a9.825,9.825,0,0,1,3.6,1.387c1.124.921,1.567,2.409,2.21,3.7a10.839,10.839,0,0,0,11.844,5.462l-.909-1.026A10.956,10.956,0,0,1,962.089,325.442Z" transform="translate(-577.153 -190.372)" opacity="0.1"/>
    <path id="Path_322" data-name="Path 322" d="M951.679,352a79.054,79.054,0,0,0-3.209,8.3c-1.148-.447-2.19-3.295-2.19-3.295l6.12-8.706C953.027,349.162,952.615,350.592,951.679,352Z" transform="translate(-593.753 -234.814)" opacity="0.1"/>
    <path id="Path_323" data-name="Path 323" d="M952.279,351.409a79.008,79.008,0,0,0-3.209,8.3c-1.148-.443-2.19-3.295-2.19-3.295l6.12-8.7C953.627,348.568,953.215,350,952.279,351.409Z" transform="translate(-594.118 -234.455)" fill="#dce7ff"/>
    <path id="Path_324" data-name="Path 324" d="M864.5,440.676l-3.393-10.7a1,1,0,0,1,.65-1.258h0a1,1,0,0,1,1.254.65l3.393,10.688-.337,2.237Z" transform="translate(-541.92 -283.698)" fill="#be8b87"/>
    <path id="Path_325" data-name="Path 325" d="M861.678,429.06h0a1,1,0,0,1,1.258.65l3.393,10.688-.255,1.677.247.259.337-2.237-3.413-10.688a1,1,0,0,0-1.254-.65h0a1,1,0,0,0-.521.392A1.374,1.374,0,0,1,861.678,429.06Z" transform="translate(-542.171 -283.722)" fill="#fff" opacity="0.1"/>
    <path id="Path_326" data-name="Path 326" d="M822.6,399.743l1.9-.6-.278,1.834-.059.4-.556-.58Z" transform="translate(-500.022 -242.765)" fill="#efc8c4"/>
    <path id="Path_327" data-name="Path 327" d="M872.42,461.8a.39.39,0,0,1,.121-.1.172.172,0,0,1,.184,0,.489.489,0,0,1,.067.106.337.337,0,0,0,.243.161l-.059.392Z" transform="translate(-548.831 -303.768)" fill="#055151"/>
    <path id="Path_328" data-name="Path 328" d="M861.13,441.7s6.805-.039,5.2,2.856a6.121,6.121,0,0,1-4.106,3.244Z" transform="translate(-541.964 -291.621)" fill="#ffb0b1"/>
    <path id="Path_329" data-name="Path 329" d="M614.118,110.05h-.294a33.511,33.511,0,0,0-27.978,15.315,33.511,33.511,0,0,0-27.978-15.315h-.294a33.3,33.3,0,0,0-32.985,33.283c0,10.9,4.772,26.356,14.077,39.077,17.729,24.24,47.179,45.448,47.179,45.448s29.451-21.2,47.175-45.448c9.309-12.721,14.077-28.181,14.077-39.077a33.3,33.3,0,0,0-32.981-33.283Zm-4.2,74.225a6.6,6.6,0,0,1-6.139-4.239h-6.99a2.21,2.21,0,0,1-2.08-1.5l-2.147-6.468L585.764,195.8a2.2,2.2,0,0,1-2.108,1.587h-.137a2.171,2.171,0,0,1-2.037-1.818l-7-42.11-5.117,24.918a2.182,2.182,0,0,1-2.12,1.657H557.4a2.19,2.19,0,1,1,0-4.376h8.122l7.248-33.5a2.2,2.2,0,0,1,4.31.18l7.15,42.956,6.088-21.239a2.155,2.155,0,0,1,2.049-1.567h.043a2.186,2.186,0,0,1,2.076,1.5l3.883,11.679h5.321a6.566,6.566,0,1,1,6.237,8.619Z" transform="translate(-337.277 -89.908)" fill="#00b3ad"/>
  </g>
</svg>
