<svg xmlns="http://www.w3.org/2000/svg" width="37.545" height="55.391" viewBox="0 0 37.545 55.391">
  <path id="man" d="M115.071,48.57v5.4a.915.915,0,0,1-1.829,0v-5.4a7.607,7.607,0,0,0-7.612-7.612,5.616,5.616,0,0,1-4.832-2.713.915.915,0,0,1,1.562-.952,3.8,3.8,0,0,0,3.269,1.835A9.436,9.436,0,0,1,115.071,48.57ZM98.021,38.7a6.927,6.927,0,0,1-5.4-1.065A5.6,5.6,0,0,0,93.1,35.77a12.247,12.247,0,0,0,15.684-11.738c0-7.758.009-7.634-.022-7.952a.915.915,0,1,0-1.821.179c.02.207.013.389.013,7.773a10.4,10.4,0,0,1-20.809,0c0-2.061-.022-3.656-.029-4.853a4.654,4.654,0,0,1,5.761-4.563c4.237,1.016,5.944,3.658,11.375,3.406a.915.915,0,1,0-.086-1.827c-4.9.23-6.252-2.252-10.862-3.357a6.483,6.483,0,0,0-8.017,6.353c.006.973.019,2.038.025,3.35a1.889,1.889,0,0,1-1.025-1.672c0-.021,0-4.751,0-4.772-.046-2.073.249-7.283,3.974-10.873C91.42,1.213,97.93,1.211,102.991,2.975l-.731.3a.915.915,0,0,0,.251,1.755l1.608.172A10.567,10.567,0,0,1,111.7,9.656a7.786,7.786,0,0,0-1.777,4.972v6.239a.915.915,0,1,0,1.829,0V14.629a5.973,5.973,0,0,1,1.729-4.219.977.977,0,0,0,.132-1.171,12.348,12.348,0,0,0-7.634-5.563.916.916,0,0,0-.177-1.515A21.68,21.68,0,0,0,95.742.014C86.609.368,81.263,7.188,81.456,16.126v4.742a3.732,3.732,0,0,0,2.868,3.615,12.253,12.253,0,0,0,6.965,10.593v.241a3.813,3.813,0,0,1-3.822,3.812,9.435,9.435,0,0,0-9.441,9.441v5.4a.915.915,0,1,0,1.829,0v-5.4a7.607,7.607,0,0,1,7.612-7.612,5.616,5.616,0,0,0,4.138-1.8,8.754,8.754,0,0,0,6.8,1.331.915.915,0,0,0-.39-1.788Zm7.789,11.5h-2.744a.915.915,0,0,0,0,1.829h2.744a.915.915,0,1,0,0-1.829Z" transform="translate(-77.776 0.253)" fill="#055151" stroke="#055151" stroke-width="0.5"/>
</svg>
