<svg xmlns="http://www.w3.org/2000/svg" width="31.917" height="54.888" viewBox="0 0 31.917 54.888">
  <path id="oxygen-tube" d="M41.043,3.559H36.334V.85a.849.849,0,0,0-.85-.85H31.165a.849.849,0,0,0-.85.85V8.71H27.766c-2.791,0-5.063,2.668-5.063,5.948V48.94c0,3.28,2.271,5.948,5.063,5.948H38.883c2.792,0,5.064-2.668,5.064-5.948V14.658c0-3.28-2.271-5.948-5.064-5.948H36.334V5.257h4.688a2.674,2.674,0,0,1,2.712,2.762.85.85,0,1,0,1.7,0A4.321,4.321,0,0,0,41.043,3.559Zm1.2,28.519H24.4V19.119H42.247ZM38.883,53.188H27.766c-1.855,0-3.363-1.906-3.363-4.249V33.777H42.247V48.94C42.247,51.282,40.738,53.188,38.883,53.188Zm3.364-38.53V17.42H24.4V14.658c0-2.343,1.508-4.249,3.363-4.249H38.883C40.738,10.409,42.247,12.315,42.247,14.658ZM34.635,8.71h-2.62V1.7h2.62V3.559H33.325a.85.85,0,1,0,0,1.7h1.309Zm-8.206-.885a3.417,3.417,0,1,0-3.417-3.417A3.421,3.421,0,0,0,26.429,7.824Zm0-5.133a1.717,1.717,0,1,1-1.717,1.717A1.72,1.72,0,0,1,26.429,2.691Zm-7-1.7a3.412,3.412,0,0,0-3.3,2.567h-1.77a.85.85,0,1,0,0,1.7h1.77a3.411,3.411,0,1,0,3.3-4.267Zm0,5.133A1.717,1.717,0,1,1,21.15,4.408,1.72,1.72,0,0,1,19.433,6.125Zm10.482,22.82a2.273,2.273,0,0,0,.934.6,3.97,3.97,0,0,0,1.312.2A3.611,3.611,0,0,0,33.5,29.51a2.545,2.545,0,0,0,.974-.672,2.886,2.886,0,0,0,.592-1.073,4.777,4.777,0,0,0,.2-1.434,4.879,4.879,0,0,0-.192-1.451,2.608,2.608,0,0,0-.568-1.018,2.272,2.272,0,0,0-.936-.6,3.948,3.948,0,0,0-1.292-.195,3.591,3.591,0,0,0-1.347.234,2.583,2.583,0,0,0-.974.672,2.868,2.868,0,0,0-.592,1.063,4.627,4.627,0,0,0-.2,1.406,5.139,5.139,0,0,0,.187,1.473A2.581,2.581,0,0,0,29.915,28.945Zm.71-3.423a2,2,0,0,1,.281-.71,1.477,1.477,0,0,1,.523-.485,1.633,1.633,0,0,1,.806-.182,1.752,1.752,0,0,1,.8.161,1.3,1.3,0,0,1,.511.458,1.967,1.967,0,0,1,.271.712,4.955,4.955,0,0,1,.08.924,4.413,4.413,0,0,1-.082.874,2.079,2.079,0,0,1-.281.72,1.433,1.433,0,0,1-.523.488,1.653,1.653,0,0,1-.806.179,1.809,1.809,0,0,1-.8-.157,1.241,1.241,0,0,1-.508-.455,2.025,2.025,0,0,1-.269-.72,5.158,5.158,0,0,1-.08-.948A4.222,4.222,0,0,1,30.625,25.523Zm5.031-1.394a.585.585,0,0,1-.01-.121.952.952,0,0,1,.007-.12.328.328,0,0,1,.023-.088.408.408,0,0,1,.043-.076.839.839,0,0,1,.069-.082l.474-.508a2.661,2.661,0,0,0,.229-.269,1.656,1.656,0,0,0,.135-.222.833.833,0,0,0,.066-.185.72.72,0,0,0,.018-.161.406.406,0,0,0-.022-.133.313.313,0,0,0-.065-.109.3.3,0,0,0-.109-.073.409.409,0,0,0-.155-.026.7.7,0,0,0-.222.031,1.14,1.14,0,0,0-.169.071c-.048.026-.088.05-.122.072a.165.165,0,0,1-.076.033.046.046,0,0,1-.033-.013.083.083,0,0,1-.022-.042.531.531,0,0,1-.014-.079c0-.033-.005-.074-.005-.122s0-.059,0-.082a.432.432,0,0,1,.01-.057.177.177,0,0,1,.017-.042.244.244,0,0,1,.037-.043.53.53,0,0,1,.1-.065,1.151,1.151,0,0,1,.174-.076,1.6,1.6,0,0,1,.229-.062,1.3,1.3,0,0,1,.26-.025,1.171,1.171,0,0,1,.373.054.748.748,0,0,1,.266.15.592.592,0,0,1,.158.229.767.767,0,0,1,.053.285,1.355,1.355,0,0,1-.025.263,1.037,1.037,0,0,1-.105.279,2.141,2.141,0,0,1-.227.33,5.3,5.3,0,0,1-.387.421l-.319.328h1.08a.067.067,0,0,1,.039.013.1.1,0,0,1,.031.039.222.222,0,0,1,.019.07.873.873,0,0,1,.006.1.938.938,0,0,1-.005.105.29.29,0,0,1-.016.071.1.1,0,0,1-.027.039.068.068,0,0,1-.038.012H35.823a.327.327,0,0,1-.081-.008.105.105,0,0,1-.054-.033A.154.154,0,0,1,35.656,24.129ZM37.574,1.487a.849.849,0,0,1,.85-.85H41.61a.85.85,0,0,1,0,1.7H40.442v.177a.425.425,0,1,1-.85,0V2.337H38.424A.85.85,0,0,1,37.574,1.487Z" transform="translate(-13.517)" fill="#055151"/>
</svg>
